# xmcd
#
# Track frame offsets:
#	150
#	12377
#	25595
#	33905
#	46980
#	58784
#	71855
#	87399
#	96687
#	116192
#	137061
#	153038
#	163758
#	177472
#	190451
#	203042
#	218186
#	230411
#	254505
#	266101
#
# Disc length: 3740
#
# Revision: 1
# Processed by: cddbd v1.5.1PL0 Copyright (c) Steve Scherf et al.
# Submitted via: EasyCDDAExtractor 7.5.2.1
# Normalized: r0:DSETVAR1
#
DISCID=2c0e9a14
DTITLE=Various Artist - Bare
DYEAR=1900
DGENRE=
TTITLE0=Bobby Bare - 500 Miles Away From Home
TTITLE1=Bobby Bare - All American Boy
TTITLE2=Bobby Bare and Connie Smith - Dear John
TTITLE3=Bobby Bare - Detroit City
TTITLE4=Bobby Bare - I Hate Goodbyes
TTITLE5=Bare, Bobby - Miller's Cave
TTITLE6=Bobby Bare - New Cut Road
TTITLE7=Bobby Bare and Skeeter Davis - A Little Bitty Tear
TTITLE8=Bobby Bare - Tequila Sheila
TTITLE9=Bobby Bare - Me and Jimmy Rodgers
TTITLE10=Bobby Bare - Country Bumpkin
TTITLE11=Bobby Bare and Skeeter Davis - Out Of Our Minds
TTITLE12=Bobby Bare - Ride Me Down Easy
TTITLE13=Bobby Bare - Marie Laveau
TTITLE14=Bobby Bare - Four Strong Winds
TTITLE15=Bobby Bare - Early Morning Rain
TTITLE16=Bobby Bare - Just the side of nowhere
TTITLE17=Bobby Bare - The Winner
TTITLE18=Bobby Bare - Salt Lake City
TTITLE19=Bobby Bare - Daddy What If
EXTD=
EXTT0=
EXTT1=
EXTT2=
EXTT3=
EXTT4=
EXTT5=
EXTT6=
EXTT7=
EXTT8=
EXTT9=
EXTT10=
EXTT11=
EXTT12=
EXTT13=
EXTT14=
EXTT15=
EXTT16=
EXTT17=
EXTT18=
EXTT19=
PLAYORDER=
